<?xml version="1.0" encoding="utf-8"?>
<!-- Generator: Adobe Illustrator 22.0.0, SVG Export Plug-In . SVG Version: 6.00 Build 0)  -->
<svg version="1.1" xmlns="http://www.w3.org/2000/svg" xmlns:xlink="http://www.w3.org/1999/xlink" x="0px" y="0px"
	 viewBox="0 0 100 100" style="enable-background:new 0 0 100 100;" xml:space="preserve">
<style type="text/css">
	.st0{fill:#39B54A;stroke:#2D2A2B;stroke-width:2;stroke-linecap:round;stroke-linejoin:round;stroke-miterlimit:10;}
	.st1{fill:#0071BC;stroke:#2D2A2B;stroke-width:2;stroke-linecap:round;stroke-linejoin:round;stroke-miterlimit:10;}
	.st2{fill:#D4145A;stroke:#2D2A2B;stroke-width:2;stroke-linecap:round;stroke-linejoin:round;stroke-miterlimit:10;}
	.st3{fill:#f2f2f2;stroke:#2D2A2B;stroke-width:2;stroke-linecap:round;stroke-linejoin:round;stroke-miterlimit:10;}
	.st4{fill:#736357;stroke:#2D2A2B;stroke-width:2;stroke-linecap:round;stroke-linejoin:round;stroke-miterlimit:10;}
	
		.st5{fill-rule:evenodd;clip-rule:evenodd;fill:#00FFFF;stroke:#2D2A2B;stroke-width:2;stroke-linecap:round;stroke-linejoin:round;stroke-miterlimit:10;}
	.st6{fill:none;stroke:#2D2A2B;stroke-width:2;stroke-linecap:round;stroke-linejoin:round;stroke-miterlimit:10;}
</style>
<g id="Layer_2">
	<g id="XMLID_1_">
		<path class="st0" d="M21,49h7.6h8.8H45c0,0,0,0,0,0c0,6.6-5.4,12-12,12S21,55.6,21,49C21,49,21,49,21,49z"/>
		<path class="st1" d="M47.6,78.3c15.8,6.2,1.8,13.6-16.3,14.7h0c-4.3-1.9-8.2-4.3-11.7-7.3c19.7,0.2,33.4-2.9,24.7-7.3H47.6z"/>
		<path class="st2" d="M28.6,49H21c0,0,0,0,0,0c-1.2-0.6-2.4-1.5-3.5-2.6c-3.8-3.8-4.8-8.8-2.4-11.3s7.5-1.4,11.3,2.4
			c0-5.3,3.1-12.2,6.5-12.2s6.5,6.9,6.5,12.2c3.8-3.8,8.8-4.8,11.3-2.4s1.4,7.5-2.4,11.3c-1.1,1.1-2.3,1.9-3.5,2.6c0,0,0,0,0,0h-7.6
			H28.6z"/>
		<polygon class="st3" points="67.6,47.2 75.4,62.8 71.2,66.7 68.3,64.8 62.7,69.2 59.5,62.8 		"/>
		<polygon class="st4" points="75.4,62.8 83.3,78.3 51.4,78.3 59.5,62.8 62.7,69.2 68.3,64.8 71.2,66.7 		"/>
		<path class="st5" d="M33,78.3H12.6c-6-7.9-9.5-17.7-9.5-28.3c0-25.9,21-46.9,46.9-46.9s46.9,21,46.9,46.9
			c0,10.7-3.6,20.5-9.5,28.3h-4l-7.9-15.6l-7.9-15.5l-8.1,15.5l-8.1,15.6h-3.9h-3.4H33z M39.5,37.5c0-5.3-3.1-12.2-6.5-12.2
			s-6.5,6.9-6.5,12.2c-3.8-3.8-8.8-4.8-11.3-2.4s-1.4,7.5,2.4,11.3c1.1,1.1,2.3,1.9,3.5,2.6c0,6.6,5.4,12,12,12s12-5.3,12-12
			c1.2-0.6,2.4-1.5,3.5-2.6c3.8-3.8,4.8-8.8,2.4-11.3S43.3,33.8,39.5,37.5z"/>
		<path class="st0" d="M83.3,78.3h4C78.8,89.6,65.3,96.9,50,96.9c-6.7,0-13-1.4-18.7-3.9c18.1-1.1,32.1-8.5,16.3-14.7h3.9H83.3z"/>
		<path class="st0" d="M33,78.3h11.2c8.7,4.4-5,7.6-24.7,7.3c-2.6-2.2-4.9-4.7-6.9-7.3H33z"/>
		<line class="st6" x1="33" y1="78.3" x2="33" y2="80.8"/>
		<line class="st6" x1="33" y1="61" x2="33" y2="78.3"/>
		<line class="st6" x1="12.6" y1="78.3" x2="12.6" y2="78.3"/>
	</g>
</g>
<g id="Layer_1">
</g>
</svg>
